<mxfile host="app.diagrams.net" modified="2023-05-07T06:55:58.342Z" agent="Mozilla/5.0 (Macintosh; Intel Mac OS X 10_15_7) AppleWebKit/605.1.15 (KHTML, like Gecko) Version/16.4 Safari/605.1.15" version="21.2.1" etag="ztrmMuwjNudzteFPoyZw" type="github">
  <diagram name="第 1 页" id="ZStP1GP7W2P88Ngjg6QA">
    <mxGraphModel>
      <root>
        <mxCell id="0" />
        <mxCell id="1" parent="0" />
      </root>
    </mxGraphModel>
  </diagram>
</mxfile>
